<?xml version="1.0" standalone="no"?>
<!DOCTYPE svg PUBLIC "-//W3C//DTD SVG 20010904//EN"
 "http://www.w3.org/TR/2001/REC-SVG-20010904/DTD/svg10.dtd">
<svg version="1.0" xmlns="http://www.w3.org/2000/svg"
 width="300.000000pt" height="224.000000pt" viewBox="0 0 300.000000 224.000000"
 preserveAspectRatio="xMidYMid meet">

<g transform="translate(0.000000,224.000000) scale(0.100000,-0.100000)"
fill="#000000" stroke="none">
<path d="M773 2008 c-420 -122 -761 -224 -758 -227 3 -3 123 -53 267 -113 144
-59 265 -111 269 -115 4 -5 42 -74 84 -155 71 -138 88 -162 97 -139 2 5 36 43
75 85 l73 76 275 -112 275 -113 0 -147 0 -147 -56 -86 c-56 -87 -123 -228
-144 -304 -6 -22 -15 -43 -20 -46 -12 -7 -16 13 -29 150 -11 114 -28 156 -65
163 -27 6 -56 -27 -56 -62 0 -35 47 -270 84 -421 26 -105 49 -139 90 -133 23
3 31 26 82 213 14 55 45 138 68 185 l41 85 3 -323 2 -322 28 6 c15 4 37 11 50
15 l22 9 0 598 0 598 51 13 c37 10 53 10 58 2 4 -6 31 -160 60 -343 29 -183
57 -346 61 -363 5 -17 9 147 9 365 l1 396 40 11 40 10 0 -599 c0 -545 1 -600
16 -594 9 3 27 9 40 12 l24 6 0 599 0 598 73 21 c39 12 85 25 101 31 44 14 46
12 46 -35 l0 -44 -70 -21 -70 -22 0 -224 c0 -124 1 -225 3 -225 1 0 32 9 70
19 l67 20 0 -49 0 -49 -70 -22 -70 -21 0 -229 c0 -177 3 -229 13 -229 6 0 41
9 77 20 36 11 66 20 68 20 1 0 2 -18 2 -40 0 -46 2 -46 81 -24 l57 16 -5 61
c-36 458 -78 1104 -73 1110 4 4 22 10 41 13 l35 6 24 -368 c15 -220 27 -357
31 -339 4 17 19 189 33 384 14 195 29 358 33 362 5 4 22 10 40 14 40 8 35 37
68 -390 25 -313 34 -388 36 -299 0 21 10 194 22 384 l22 345 39 13 c21 7 40
11 42 10 1 -2 -15 -253 -37 -558 -21 -305 -39 -578 -39 -606 l0 -51 90 25 89
25 -24 23 c-24 22 -25 28 -25 147 l0 124 35 10 35 11 0 -98 c0 -77 4 -102 16
-114 16 -16 26 -14 56 11 22 20 33 175 19 266 -7 39 -41 141 -81 240 -76 188
-97 283 -85 391 15 139 44 187 124 206 69 16 86 8 110 -53 l20 -52 0 71 1 72
-62 26 c-35 14 -160 66 -278 115 l-214 88 -111 -33 c-60 -18 -111 -31 -113
-29 -2 2 -27 47 -55 101 l-52 97 -265 108 c-146 60 -276 109 -290 108 -14 0
-368 -100 -787 -221z"/>
<path d="M2850 1510 c-18 -18 -20 -33 -20 -127 1 -119 10 -154 90 -333 23 -52
50 -131 60 -175 l18 -80 1 258 1 259 -40 -7 -40 -7 0 94 c0 68 -4 100 -16 116
-19 27 -28 28 -54 2z"/>
<path d="M2457 1000 c-12 -87 -59 -712 -54 -716 3 -4 108 24 115 31 3 2 -45
679 -51 720 -2 11 -6 -5 -10 -35z"/>
<path d="M1075 980 c-25 -28 -79 -44 -104 -31 -27 15 -61 14 -62 -1 -1 -7 -2
-24 -3 -37 -1 -19 -13 -31 -56 -52 -30 -15 -73 -31 -95 -34 -51 -9 -65 -21
-65 -54 0 -35 35 -91 57 -91 10 0 45 18 78 40 61 41 93 50 98 28 1 -7 2 -132
2 -277 l0 -264 54 -24 54 -24 -4 328 -4 328 56 30 c74 39 89 53 89 80 0 29
-36 75 -59 75 -10 0 -26 -9 -36 -20z"/>
<path d="M1631 413 c-1 -194 2 -353 5 -353 12 0 89 23 96 29 4 3 -17 157 -47
341 l-53 335 -1 -352z"/>
<path d="M570 521 l0 -170 68 20 c37 11 102 30 145 42 l77 22 0 68 0 68 -69
-56 c-37 -30 -70 -55 -73 -55 -3 0 -35 52 -72 115 -37 63 -70 115 -72 115 -2
0 -4 -76 -4 -169z"/>
<path d="M2992 549 c-1 -8 -13 -37 -26 -62 -20 -40 -21 -47 -7 -47 34 0 42 16
38 71 -2 30 -4 47 -5 38z"/>
</g>
</svg>
